<svg width="22" height="27" viewBox="0 0 22 27" fill="none" xmlns="http://www.w3.org/2000/svg">
<path d="M18.9077 16.1965C20.6155 16.1965 22 17.556 22 19.2331V20.4732C22 21.2474 21.7536 22.0022 21.2952 22.6321C19.1695 25.553 15.6985 27 10.9955 27C6.29149 27 2.82231 25.5523 0.701777 22.6299C0.245315 22.0009 0 21.2477 0 20.4752V19.2331C0 17.556 1.38447 16.1965 3.0923 16.1965H18.9077ZM10.9955 0C14.7925 0 17.8707 3.02261 17.8707 6.7512C17.8707 10.4798 14.7925 13.5024 10.9955 13.5024C7.19839 13.5024 4.12026 10.4798 4.12026 6.7512C4.12026 3.02261 7.19839 0 10.9955 0Z" fill="white"/>
</svg>
